<svg width="24" height="24" viewBox="0 0 24 24" fill="none" xmlns="http://www.w3.org/2000/svg">
<path d="M1.42031 3.65625C0.792188 3.88125 0.309375 4.36875 0.0890625 5.00625C0.0046875 5.25469 0 5.48906 0 12C0 18.5484 0.0046875 18.7406 0.0890625 18.9984C0.309375 19.6406 0.796875 20.1281 1.44375 20.3484C1.69688 20.4328 1.98281 20.4375 12 20.4375C22.0172 20.4375 22.3031 20.4328 22.5563 20.3484C23.2031 20.1281 23.6906 19.6406 23.9109 18.9984C23.9953 18.7406 24 18.5484 24 12C24 5.45156 23.9953 5.25937 23.9109 5.00156C23.6906 4.35937 23.2031 3.87187 22.5563 3.65156C22.3031 3.56719 22.0219 3.5625 11.9813 3.56719C2.04844 3.56719 1.65469 3.57187 1.42031 3.65625ZM17.4047 9.09375C13.4766 13.0031 13.2516 13.2187 12.9281 13.3781C12.5297 13.575 12.1313 13.6406 11.7094 13.5844C11.5313 13.5609 11.2781 13.4812 11.0719 13.3781C10.7484 13.2187 10.5234 13.0031 6.59531 9.09375L2.46094 4.97344H12H21.5391L17.4047 9.09375ZM4.73438 9.3L7.42969 12L4.41563 15.0141L1.40625 18.0234V12.0281V6.0375L1.725 6.31875C1.89844 6.47812 3.25313 7.81875 4.73438 9.3ZM22.5938 12.0328V18.0234L19.5844 15.0094L16.5703 12L19.5516 9.02344C21.1922 7.3875 22.5469 6.04687 22.5609 6.04687C22.5797 6.04687 22.5938 8.74219 22.5938 12.0328ZM8.95313 13.5281C10.1109 14.6953 10.8281 15.0562 12 15.0562C12.6328 15.0562 13.0781 14.9531 13.5844 14.7C14.0016 14.4891 14.325 14.2312 14.9859 13.5797L15.5109 13.0641L15.9703 13.4906C16.2234 13.725 17.5781 15.0656 18.9844 16.4719L21.5391 19.0312H12H2.46094L5.44219 16.0547C7.08281 14.4187 8.44688 13.0781 8.47031 13.0781C8.48906 13.0781 8.70938 13.2797 8.95313 13.5281Z" fill="white"/>
</svg>
